<svg width="11" height="21" viewBox="0 0 11 21" fill="none" xmlns="http://www.w3.org/2000/svg">
<path d="M3.82693 1.53009C4.60833 0.787645 5.71453 0.535295 6.7629 0.506095C7.86943 0.496342 8.97592 0.50122 10.0821 0.50122C10.087 1.67074 10.087 2.83539 10.0821 4.00492C9.36893 4.00492 8.65052 4.00492 7.9373 4.00492C7.48587 3.97569 7.02012 4.32027 6.93762 4.77169C6.9279 5.55312 6.93277 6.33422 6.93277 7.11562C7.98082 7.1205 9.0292 7.11562 10.0773 7.12049C9.99965 8.25104 9.859 9.37704 9.69403 10.4933C8.7671 10.503 7.8402 10.4933 6.91327 10.4982C6.90355 13.832 6.91815 17.161 6.9084 20.4951C5.53007 20.5 4.1569 20.4902 2.77855 20.5C2.7542 17.1661 2.77855 13.8323 2.76395 10.4982C2.09425 10.4933 1.4197 10.503 0.75 10.4933C0.754875 9.37217 0.75 8.25135 0.75 7.1351C1.4197 7.12537 2.09425 7.13509 2.76395 7.13024C2.78343 6.04319 2.74445 4.95129 2.78343 3.86427C2.85648 2.99582 3.18158 2.12704 3.82693 1.53009Z" fill="black"/>
</svg>
