<svg width="21" height="21" viewBox="0 0 21 21" fill="none" xmlns="http://www.w3.org/2000/svg">
    <path d="M14.7411 0.5H6.26C3.08068 0.5 0.5 3.08067 0.5 6.23932V14.7792C0.5 17.9204 3.08068 20.5 6.26 20.5H14.74C17.9204 20.5 20.5 17.9204 20.5 14.7596V6.2404C20.5011 3.08068 17.9204 0.5 14.7411 0.5ZM5.3 10.5006C5.3 7.62708 7.63143 5.3 10.5006 5.3C13.3696 5.3 15.7 7.62708 15.7 10.5006C15.7 13.374 13.3686 15.7 10.5006 15.7C7.63143 15.7 5.3 13.374 5.3 10.5006ZM16.2213 5.80067C15.552 5.80067 15.0197 5.2706 15.0197 4.60122C15.0197 3.93182 15.5509 3.40067 16.2213 3.40067C16.8897 3.40067 17.4208 3.93182 17.4208 4.60122C17.4208 5.2706 16.8897 5.80067 16.2213 5.80067Z"
          fill="black"/>
    <path d="M10.5004 7.10059C8.6163 7.10059 7.1001 8.62221 7.1001 10.5009C7.1001 12.3784 8.6163 13.9011 10.5004 13.9011C12.3855 13.9011 13.9006 12.3784 13.9006 10.5009C13.9006 8.62331 12.3627 7.10059 10.5004 7.10059Z"
          fill="black"/>
</svg>
