<svg width="21" height="20" viewBox="0 0 21 20" fill="none" xmlns="http://www.w3.org/2000/svg">
<path d="M20.5 11.7169V19.111H16.2132V12.212C16.2132 10.4791 15.5931 9.2964 14.0417 9.2964C12.8573 9.2964 12.1524 10.0935 11.8421 10.8647C11.729 11.1403 11.6998 11.5241 11.6998 11.9097V19.111H7.41158C7.41158 19.111 7.46925 7.42652 7.41158 6.2161H11.6991V8.04383C11.6904 8.05752 11.6792 8.07228 11.671 8.08562H11.6991V8.04383C12.2688 7.16635 13.2861 5.91305 15.5632 5.91305C18.3851 5.91305 20.5 7.75625 20.5 11.7169ZM2.92625 0C1.45925 0 0.5 0.96215 0.5 2.2277C0.5 3.46553 1.43188 4.45685 2.86968 4.45685H2.89815C4.39363 4.45685 5.32333 3.46553 5.32333 2.2277C5.29523 0.96215 4.39363 0 2.92625 0ZM0.754775 19.111H5.04117V6.2161H0.754775V19.111Z" fill="black"/>
</svg>
