<svg width="19" height="21" viewBox="0 0 19 21" fill="none" xmlns="http://www.w3.org/2000/svg">
<path d="M9.87754 0.516875C10.9682 0.5 12.0527 0.51 13.1358 0.5C13.2015 1.7757 13.6602 3.07512 14.594 3.97705C15.526 4.90147 16.8442 5.32463 18.1267 5.46777V8.82358C16.9248 8.7842 15.7172 8.53417 14.6265 8.01665C14.1515 7.80165 13.709 7.52475 13.2758 7.2416C13.2702 9.67675 13.2858 12.1087 13.2602 14.5339C13.1952 15.6989 12.8108 16.8584 12.1333 17.8184C11.0432 19.4166 9.15124 20.4586 7.20801 20.4911C6.01609 20.5592 4.82539 20.2342 3.80971 19.6354C2.12649 18.6429 0.94206 16.8259 0.76956 14.8758C0.749535 14.4589 0.74266 14.0426 0.759535 13.6357C0.90956 12.05 1.69399 10.533 2.91154 9.5011C4.29161 8.29917 6.22484 7.72662 8.03494 8.0654C8.05181 9.29985 8.00244 10.533 8.00244 11.7675C7.17551 11.5 6.20921 11.575 5.48669 12.0769C4.95914 12.4187 4.55851 12.9426 4.34974 13.5351C4.17724 13.9576 4.22661 14.427 4.23661 14.8758C4.43474 16.2433 5.74981 17.3928 7.15364 17.2684C8.08431 17.2584 8.97624 16.7184 9.46126 15.9277C9.61814 15.6508 9.79379 15.3677 9.80316 15.042C9.88504 13.5513 9.85254 12.0669 9.86254 10.5761C9.86941 7.2166 9.85254 3.86643 9.87816 0.5175L9.87754 0.516875Z" fill="black"/>
</svg>
