<svg width="21" height="15" viewBox="0 0 21 15" fill="none" xmlns="http://www.w3.org/2000/svg">
<path d="M20.7373 2.96688C20.5381 1.3946 19.6299 0.4084 18.0177 0.262725C16.1718 0.0959749 12.1758 0 10.3223 0C6.53113 0 4.8369 0.0925999 3.04405 0.278175C1.3355 0.4547 0.587575 1.21393 0.2936 2.7813C0.0877051 3.87967 0 4.9084 0 7.33965C0 9.5236 0.103137 10.8971 0.262735 12.0527C0.482182 13.6397 1.57152 14.5314 3.16787 14.6642C5.0251 14.8189 8.74555 14.8961 10.5851 14.8961C12.3625 14.8961 16.3626 14.8035 18.1411 14.6025C19.733 14.4226 20.4899 13.5723 20.7373 12.0064C20.7373 12.0064 21 10.2911 21 7.32423C21 5.63488 20.8765 4.06375 20.7373 2.96688ZM8.26713 10.3995V4.3626L14.0153 7.3502L8.26713 10.3995Z" fill="black"/>
</svg>
